<?xml version="1.0" encoding="UTF-8" standalone="no"?>
<!-- Created with Inkscape (http://www.inkscape.org/) -->

<svg
   width="128"
   height="128"
   viewBox="0 0 33.866666 33.866666"
   version="1.1"
   id="svg1"
   inkscape:version="1.3.2 (091e20e, 2023-11-25, custom)"
   sodipodi:docname="empty_portrait.svg"
   xmlns:inkscape="http://www.inkscape.org/namespaces/inkscape"
   xmlns:sodipodi="http://sodipodi.sourceforge.net/DTD/sodipodi-0.dtd"
   xmlns="http://www.w3.org/2000/svg"
   xmlns:svg="http://www.w3.org/2000/svg">
  <sodipodi:namedview
     id="namedview1"
     pagecolor="#ffffff"
     bordercolor="#666666"
     borderopacity="1.0"
     inkscape:showpageshadow="2"
     inkscape:pageopacity="0.0"
     inkscape:pagecheckerboard="0"
     inkscape:deskcolor="#d1d1d1"
     inkscape:document-units="mm"
     inkscape:zoom="2"
     inkscape:cx="54.5"
     inkscape:cy="63"
     inkscape:window-width="1920"
     inkscape:window-height="1009"
     inkscape:window-x="-8"
     inkscape:window-y="-8"
     inkscape:window-maximized="1"
     inkscape:current-layer="layer1" />
  <defs
     id="defs1">
    <rect
       x="-177"
       y="-19.5"
       width="68"
       height="74.5"
       id="rect3" />
    <rect
       x="-86.267027"
       y="-10.606602"
       width="110.66221"
       height="91.923882"
       id="rect2" />
    <rect
       x="-177"
       y="-19.5"
       width="68"
       height="74.5"
       id="rect4" />
    <rect
       x="-177"
       y="-19.5"
       width="68"
       height="74.5"
       id="rect6" />
    <rect
       x="-177"
       y="-19.5"
       width="68"
       height="74.5"
       id="rect7" />
  </defs>
  <g
     inkscape:label="Layer 1"
     inkscape:groupmode="layer"
     id="layer1">
    <rect
       style="opacity:1;fill:none;stroke-width:1.5875;stroke-linecap:round;stroke-linejoin:round;paint-order:markers fill stroke;stroke:#151515;stroke-opacity:1;stroke-dasharray:none;fill-opacity:1"
       id="rect1"
       width="33.866665"
       height="33.866665"
       x="0"
       y="0"
       ry="0" />
    <ellipse
       style="opacity:1;fill:#151515;fill-opacity:1;stroke:none;stroke-width:0.79375;stroke-linecap:round;stroke-linejoin:round;stroke-dasharray:none;stroke-opacity:1;paint-order:markers stroke fill"
       id="path2"
       cx="17.182854"
       cy="10.947279"
       rx="5.7276182"
       ry="6.8146114" />
    <ellipse
       style="opacity:1;fill:#151515;fill-opacity:1;stroke:none;stroke-width:1.70277;stroke-linecap:round;stroke-linejoin:round;stroke-dasharray:none;stroke-opacity:1;paint-order:markers stroke fill"
       id="ellipse2"
       cx="17.182854"
       cy="32.149918"
       rx="11.580659"
       ry="15.510557" />
    <path
       d="M -82.147578,3.4325781 Q -81.347578,2.9125781 -80.307578,2.9125781 -78.587578,2.9125781 -76.987578,4.3525781 -75.387578,5.7925781 -75.387578,7.6325781 V 7.9525781 Q -75.427578,8.9525781 -75.987578,9.8325781 -76.507578,10.712578 -78.027578,12.432578 -79.307578,13.872578 -79.667578,14.432578 -79.987578,14.992578 -80.067578,15.872578 -80.187578,16.792578 -80.507578,16.992578 -80.867578,17.232578 -81.427578,17.232578 -81.987578,17.232578 -82.347578,16.992578 -82.707578,16.752578 -82.707578,15.752578 -82.707578,14.792578 -82.347578,14.072578 -81.987578,13.352578 -80.627578,11.632578 -78.587578,8.9925781 -78.387578,7.5125781 -78.347578,7.3525781 -78.347578,7.0325781 -78.347578,6.2325781 -78.747578,5.7125781 -79.147578,5.1925781 -79.787578,5.1925781 -80.947578,5.1925781 -82.787578,6.8325781 -83.707578,7.6325781 -84.227578,7.6325781 -84.547578,7.6325781 -84.827578,7.4725781 -85.147578,7.2725781 -85.147578,6.7125781 -85.147578,6.3125781 -84.947578,6.0325781 -84.747578,5.7525781 -84.027578,5.0325781 -82.907578,3.9125781 -82.147578,3.4325781 Z M -82.187578,20.112578 Q -81.827578,19.872578 -81.307578,19.872578 -80.587578,19.872578 -80.187578,20.272578 -79.747578,20.712578 -79.747578,21.472578 -79.747578,21.872578 -79.947578,22.072578 -80.387578,22.392578 -80.907578,22.392578 -81.907578,22.392578 -82.307578,21.552578 -82.507578,21.152578 -82.507578,20.712578 -82.507578,20.312578 -82.187578,20.112578 Z"
       id="text2"
       style="font-size:40px;line-height:1.25;font-family:Luckycomicx;-inkscape-font-specification:Luckycomicx;letter-spacing:0px;word-spacing:0px;white-space:pre;fill:#ffffff"
       transform="matrix(0.44995124,0,0,0.44995124,53.458047,5.1608623)"
       aria-label="?" />
  </g>
</svg>
